# xmcd
#
# Track frame offsets: 
#        150
#        11857
#        25194
#        37260
#        55102
#        70119
#        87475
#        106821
#        122012
#        138562
#        155239
#        171871
#        189957
#        220551
#        238550
#
# Disc length: 3382 seconds
#
# Revision: 0
# Processed by: cddbd v1.5.2PL0 Copyright (c) Steve Scherf et al.
# Submitted via: ExactAudioCopyFreeDBPlugin 1.0
#
DISCID=ce0d340f
DTITLE=Emmylou Harris and the Hot Band - Emmylou Harris and the Hot Ba
DTITLE=nd - Live on the Radio 1975 and 1978
DYEAR=2014
DGENRE=Country
TTITLE0=Cash on the Barrelhead
TTITLE1=That's All it Took
TTITLE2=Feelin' Single, Seein' Double
TTITLE3=Coat of Many Colors
TTITLE4=Amarillo
TTITLE5=Together Again
TTITLE6=Return of the Grievous Angel
TTITLE7=Bluebird Wine
TTITLE8=Tonight the Bottle Let Me Down
TTITLE9=Boulder to Birmingham
TTITLE10=Cry One More Time
TTITLE11=Ooh Las Vegas
TTITLE12=Shop Around Jam
TTITLE13=Hickory Wind
TTITLE14=Jambalaya
EXTD=
EXTT0=
EXTT1=
EXTT2=
EXTT3=
EXTT4=
EXTT5=
EXTT6=
EXTT7=
EXTT8=
EXTT9=
EXTT10=
EXTT11=
EXTT12=
EXTT13=
EXTT14=
PLAYORDER=
